<svg width="223" height="228" viewBox="0 0 223 228" fill="none" xmlns="http://www.w3.org/2000/svg">
<path d="M213.008 123.117C212.796 175.504 167.327 218.209 110.916 217.98C54.5054 217.751 9.38446 174.678 9.59706 122.292C9.80967 69.9053 55.2787 27.2 111.689 27.429C168.1 27.6579 213.221 70.7308 213.008 123.117Z" stroke="black" stroke-width="8"/>
<path d="M111.203 168V6L6.03595 222L111.203 168Z" fill="black"/>
<path d="M111.203 6V168L216.5 221.5L111.203 6Z" fill="black"/>
<path d="M111.203 6V168M111.203 6L6.03595 222L111.203 168M111.203 6L216.5 221.5L111.203 168" stroke="white" stroke-width="5"/>
<path d="M113 31V24H111H109V31H113Z" fill="black"/>
</svg>
