<svg width="223" height="253" viewBox="0 0 223 253" fill="none" xmlns="http://www.w3.org/2000/svg">
<path d="M52.8714 249.35C50.1064 249.35 47.7964 248.755 45.5914 247.67L47.0964 241.93H48.2514L49.5464 246.97C50.9464 247.635 51.9964 247.81 53.2564 247.81C56.7214 247.81 58.6114 246.235 58.6114 243.995C58.6114 241.405 56.1264 240.18 53.0114 238.675C49.4414 236.995 46.2214 235.35 46.2214 231.57C46.2214 227.825 49.3714 224.71 54.9714 224.71C57.4564 224.71 59.6614 225.305 61.7614 226.32L60.3614 231.815H59.1714L57.9464 227.02C56.6514 226.425 55.6714 226.25 54.5164 226.25C51.4364 226.25 49.8964 227.58 49.8964 229.68C49.8964 232.2 52.1364 233.25 55.0764 234.615C58.8214 236.365 62.4614 238.15 62.4614 242.21C62.4614 246.095 58.8914 249.35 52.8714 249.35ZM72.3448 230.415V243.785C72.3448 245.465 72.3448 246.375 72.6248 246.9C72.9398 247.53 73.5348 247.635 75.0048 247.845V249C72.5198 248.895 71.9948 248.86 70.2098 248.86C68.4248 248.86 67.8998 248.895 65.4148 249V247.845C66.7798 247.635 67.4448 247.53 67.7248 246.97C68.0398 246.445 68.0748 245.535 68.0748 243.75V230.45C68.0748 228.665 68.0398 227.755 67.7248 227.23C67.4448 226.67 66.7798 226.565 65.4148 226.355V225.2C67.8998 225.305 68.4248 225.34 70.2098 225.34C71.9948 225.34 72.5198 225.305 75.0048 225.2V226.355C73.5348 226.565 72.9398 226.67 72.6248 227.3C72.3448 227.825 72.3448 228.735 72.3448 230.415ZM76.9853 232.725L77.6853 225.2H97.7053L98.4403 232.725H97.1803L94.2753 226.81H89.8303V243.785C89.8303 245.465 89.8303 246.375 90.1103 246.9C90.4253 247.53 91.0553 247.635 92.4903 247.845V249C90.0053 248.895 89.4803 248.86 87.5903 248.86C85.9103 248.86 85.3853 248.895 82.9003 249V247.845C84.2653 247.635 84.9303 247.53 85.2453 246.97C85.5253 246.445 85.5603 245.535 85.5603 243.75V226.81H81.1503L78.2103 232.725H76.9853Z" fill="#ED1C24"/>
<path d="M109.981 225.2L117.751 243.925C119.151 247.18 119.081 247.46 121.391 247.845V249C120.096 248.93 118.661 248.86 116.211 248.86C113.726 248.86 113.026 248.93 111.626 249V247.845C113.096 247.6 114.006 247.495 114.006 246.445C114.006 245.78 113.726 244.8 113.131 243.33L112.711 242.28H103.926L103.121 244.345C102.701 245.395 102.526 246.06 102.526 246.55C102.526 247.565 103.611 247.635 104.941 247.845V249C103.506 248.93 102.456 248.86 100.986 248.86C99.8307 248.86 98.7457 248.93 97.4507 249V247.845C99.5157 247.495 99.6907 247.25 100.776 244.625L108.826 225.2H109.981ZM104.556 240.705H112.081L108.266 231.325L104.556 240.705ZM128.375 249.35C125.575 249.35 124.035 247.635 124.035 244.8V234.895H122.005V233.74C124.315 233.32 125.995 231.43 126.87 228.805H128.06V233.215L133.31 233.005V234.895H128.06V243.33C128.06 246.305 128.935 247.18 130.895 247.18C131.735 247.18 132.4 247.04 132.995 246.795L133.45 248.02C131.805 248.79 130.02 249.35 128.375 249.35ZM141.398 228.315V243.505C141.398 245.5 141.398 246.55 141.713 247.11C142.028 247.705 142.623 247.81 143.708 247.985V249C141.573 248.895 141.293 248.86 139.403 248.86C137.478 248.86 137.198 248.895 135.063 249V247.985C136.113 247.81 136.743 247.705 137.023 247.215C137.373 246.655 137.373 245.64 137.373 243.47V229.435C137.373 227.86 137.373 227.09 137.023 226.67C136.743 226.285 136.218 226.18 135.133 226.04V224.955C137.408 224.745 139.123 224.36 140.803 223.8L141.573 224.185C141.433 225.375 141.398 226.67 141.398 228.315ZM146.671 235.875C148.316 234.265 150.591 232.655 153.426 232.655C156.716 232.655 158.886 234.825 158.851 238.535L158.746 245.15C158.711 247.145 159.306 247.775 161.406 247.775V248.755C160.251 249.175 159.131 249.35 158.221 249.35C156.366 249.35 154.861 248.615 154.861 246.55V246.165C153.321 248.02 151.711 249.35 149.611 249.35C147.651 249.35 145.936 248.16 145.936 245.78C145.936 243.225 148.001 240.53 154.721 239.06L154.931 239.025C154.826 237.065 154.231 235.35 151.676 235.35C150.031 235.35 148.491 236.015 147.371 236.785L146.671 235.875ZM149.891 244.52C149.891 245.955 150.871 246.55 151.921 246.55C153.181 246.55 154.091 245.71 154.896 244.765L154.931 240.425C151.781 241.09 149.891 242.595 149.891 244.52ZM168.1 242.455C165.475 241.265 163.76 240.18 163.76 237.695C163.76 234.65 166.42 232.655 170.165 232.655C171.845 232.655 173.665 233.005 175.345 233.845L174.085 237.66H173.21L172.16 234.545C171.53 234.23 170.83 234.02 170.025 234.02C168.24 234.02 167.505 235.035 167.505 236.155C167.505 237.765 169.01 238.325 171.145 239.305C173.805 240.53 175.555 241.615 175.555 244.135C175.555 247.425 172.44 249.35 168.59 249.35C166.91 249.35 164.95 249 163.2 248.125L164.495 244.205H165.37L166.49 247.46C167.19 247.845 167.855 247.985 168.73 247.985C171.005 247.985 171.845 246.865 171.845 245.675C171.845 243.96 170.34 243.435 168.1 242.455Z" fill="#231F20"/>
<path d="M213.008 123.117C212.796 175.504 167.327 218.209 110.916 217.98C54.5054 217.751 9.38446 174.678 9.59706 122.292C9.80967 69.9053 55.2787 27.2 111.689 27.429C168.1 27.6579 213.221 70.7308 213.008 123.117Z" stroke="black" stroke-width="8"/>
<path d="M111.203 168V6L6.03595 222L111.203 168Z" fill="#ED1C24"/>
<path d="M111.203 6V168L216.5 221.5L111.203 6Z" fill="#231F20"/>
<path d="M111.203 6V168M111.203 6L6.03595 222L111.203 168M111.203 6L216.5 221.5L111.203 168" stroke="white" stroke-width="5"/>
<path d="M113 31V24H111H109V31H113Z" fill="black"/>
</svg>
