<svg width="228" height="230" viewBox="0 0 228 230" fill="none" xmlns="http://www.w3.org/2000/svg">
<path d="M113.689 225.98C174.038 226.225 223.582 180.42 223.814 123.15C224.047 65.8795 174.876 19.674 114.528 19.429C54.1791 19.1841 4.63534 64.989 4.40291 122.259C4.17049 179.53 53.3408 225.735 113.689 225.98Z" fill="black" stroke="white" stroke-width="8"/>
<path d="M114.008 168V6L8.84174 222L114.008 168Z" fill="white"/>
<path d="M114.008 6V168L219.306 221.5L114.008 6Z" fill="white"/>
<path d="M114.008 6V168M114.008 6L8.84174 222L114.008 168M114.008 6L219.306 221.5L114.008 168" stroke="#231F20" stroke-width="5"/>
<path d="M115.806 31V24H113.806H111.806V31H115.806Z" fill="black"/>
</svg>
