<svg width="222" height="228" viewBox="0 0 222 228" fill="none" xmlns="http://www.w3.org/2000/svg">
<path d="M212.814 123.117C212.602 175.504 167.133 218.209 110.722 217.98C54.3112 217.751 9.19024 174.678 9.40285 122.292C9.61546 69.9053 55.0845 27.2 111.495 27.429C167.906 27.6579 213.027 70.7308 212.814 123.117Z" stroke="black" stroke-width="8"/>
<path d="M111.008 168V6L5.84174 222L111.008 168Z" fill="#ED1C24"/>
<path d="M111.008 6V168L216.306 221.5L111.008 6Z" fill="#231F20"/>
<path d="M111.008 6V168M111.008 6L5.84174 222L111.008 168M111.008 6L216.306 221.5L111.008 168" stroke="white" stroke-width="5"/>
<path d="M112.806 31V24H110.806H108.806V31H112.806Z" fill="black"/>
</svg>
